<svg xmlns="http://www.w3.org/2000/svg" width="29" height="27" viewBox="0 0 29 27"><g><g><path fill="#fff" d="M27.717 23.242H2.248c-.78 0-1.414.652-1.414 1.456 0 .803.633 1.455 1.414 1.455h25.469c.78 0 1.415-.652 1.415-1.455 0-.804-.634-1.456-1.415-1.456zM2.248 2.862h25.469c.78 0 1.415-.651 1.415-1.455 0-.803-.634-1.455-1.415-1.455H2.248c-.78 0-1.414.652-1.414 1.455 0 .804.633 1.456 1.414 1.456zm25.469 8.735H2.248c-.78 0-1.414.652-1.414 1.456 0 .803.633 1.455 1.414 1.455h25.469c.78 0 1.415-.652 1.415-1.455 0-.804-.634-1.456-1.415-1.456z"/></g></g></svg>