<svg xmlns="http://www.w3.org/2000/svg" width="19" height="13" viewBox="0 0 19 13"><g><g><path fill="#64b0ce" d="M19 1.668v9.664c0 .92-.75 1.668-1.67 1.668H1.67A1.67 1.67 0 0 1 0 11.332V1.668C0 .748.75 0 1.67 0h15.66C18.25 0 19 .748 19 1.668zM1.888 1.112l.223.185 6.726 5.594c.384.32.942.32 1.326 0l6.726-5.594.223-.185zm-.775 9.003l5.481-3.643-5.48-4.558zm16.763 1.328l-6.363-4.229-.638.531a2.146 2.146 0 0 1-2.75 0l-.638-.53-6.363 4.228a.557.557 0 0 0 .546.445h15.66a.557.557 0 0 0 .546-.445zm.01-9.529l-5.48 4.558 5.48 3.643z"/></g></g></svg>