<svg xmlns="http://www.w3.org/2000/svg" width="14" height="19" viewBox="0 0 14 19"><g><g><path fill="#085892" d="M12.847 15.611l-.696 2.564c-.168.62-.817.988-1.449.82C3.545 17.097-.73 9.825 1.142 2.757a1.262 1.262 0 0 1 1.546-.888l2.522.667c.624.165 1 .804.832 1.425a8.144 8.144 0 0 0-.273 2.61c.02.443-.21.853-.594 1.071L3.592 8.865c.48 2.069 1.317 3.494 2.9 4.959l1.916-.77c.332-.196.82-.18 1.185.062.741.476 1.554.837 2.423 1.067a1.16 1.16 0 0 1 .831 1.428zm-1.473 2.358l.695-2.56a.358.358 0 0 0-.254-.44 9.233 9.233 0 0 1-2.664-1.175.367.367 0 0 0-.378-.011l-2.206.888a.419.419 0 0 1-.427-.077c-1.885-1.687-2.872-3.37-3.393-5.807a.407.407 0 0 1 .15-.402L4.73 6.973c.17-.1.242-.228.235-.368a8.892 8.892 0 0 1 .3-2.859.36.36 0 0 0-.26-.437L2.403 2.62a.363.363 0 0 0-.446.25C.144 9.55 4.17 16.432 10.924 18.224a.366.366 0 0 0 .443-.256z"/><path fill="none" stroke="#085892" stroke-linecap="round" stroke-linejoin="round" stroke-miterlimit="20" d="M12.847 15.611l-.696 2.564c-.168.62-.817.988-1.449.82C3.545 17.097-.73 9.825 1.142 2.757a1.262 1.262 0 0 1 1.546-.888l2.522.667c.624.165 1 .804.832 1.425a8.144 8.144 0 0 0-.273 2.61c.02.443-.21.853-.594 1.071L3.592 8.865c.48 2.069 1.317 3.494 2.9 4.959l1.916-.77c.332-.196.82-.18 1.185.062.741.476 1.554.837 2.423 1.067a1.16 1.16 0 0 1 .831 1.428zm-1.473 2.358l.695-2.56a.358.358 0 0 0-.254-.44 9.233 9.233 0 0 1-2.664-1.175.367.367 0 0 0-.378-.011l-2.206.888a.419.419 0 0 1-.427-.077c-1.885-1.687-2.872-3.37-3.393-5.807a.407.407 0 0 1 .15-.402L4.73 6.973c.17-.1.242-.228.235-.368a8.892 8.892 0 0 1 .3-2.859.36.36 0 0 0-.26-.437L2.403 2.62a.363.363 0 0 0-.446.25C.144 9.55 4.17 16.432 10.924 18.224a.366.366 0 0 0 .443-.256z"/></g></g></svg>