<svg xmlns="http://www.w3.org/2000/svg" width="21" height="27" viewBox="0 0 21 27"><g><g><path fill="#494747" d="M20.396 10.634c0 6.804-8.933 15.744-9.312 16.122a.832.832 0 0 1-1.168 0c-.38-.378-9.312-9.318-9.312-16.122C.604 5.22 5.042.817 10.5.817c5.458 0 9.896 4.403 9.896 9.817zm-1.65 0c0-4.51-3.699-8.18-8.246-8.18-4.547 0-8.247 3.67-8.247 8.18 0 5.198 6.278 12.269 8.247 14.36 1.97-2.091 8.247-9.167 8.247-14.36zm-3.298 0c0 2.706-2.22 4.908-4.948 4.908s-4.948-2.202-4.948-4.908c0-2.706 2.22-4.908 4.948-4.908s4.948 2.202 4.948 4.908zm-1.65 0c0-1.805-1.479-3.272-3.298-3.272-1.82 0-3.299 1.467-3.299 3.272 0 1.805 1.48 3.272 3.299 3.272 1.82 0 3.299-1.467 3.299-3.272z"/></g></g></svg>