<svg xmlns="http://www.w3.org/2000/svg" width="26" height="26" viewBox="0 0 26 26"><g><g><path fill="#494747" d="M25.33 24.594l-.736.736a.52.52 0 0 1-.735 0l-7.252-7.253a9.831 9.831 0 0 1-6.208 2.204c-5.448 0-9.881-4.433-9.881-9.882C.518 4.951 4.95.517 10.399.517c5.45 0 9.882 4.434 9.882 9.882 0 2.35-.828 4.51-2.203 6.208l7.252 7.252a.52.52 0 0 1 0 .735zM18.2 10.4c0-4.302-3.499-7.801-7.8-7.801-4.303 0-7.802 3.5-7.802 7.801 0 4.302 3.5 7.802 7.801 7.802 4.302 0 7.802-3.5 7.802-7.802z"/></g></g></svg>