<svg xmlns="http://www.w3.org/2000/svg" width="13" height="13" viewBox="0 0 13 13"><g><g><path fill="#fff" d="M5.042 0c.636-.009 1.2.06 1.684.217 1.689.54 2.774 1.647 3.379 3.254.206.549.38 1.425.242 2.18-.061.335-.113.655-.212.956a5.171 5.171 0 0 1-.817 1.518L13 11.735v.02l-1.28 1.242h-.02L7.966 9.348l-.605.326c-.477.211-.993.334-1.594.434-.885.146-1.796-.095-2.42-.316C1.418 9.106-.467 6.905.1 4.092c.069-.341.175-.684.303-.986C.99 1.716 2.105.786 3.569.246 3.88.132 4.235.092 4.59.03L5.041 0zm.01 1.193c-.084.005-.168.006-.252.01-.325.058-.662.093-.938.207-1.196.49-2.006 1.242-2.45 2.466-.175.479-.24 1.228-.122 1.804.306 1.49 1.07 2.327 2.29 2.92.33.16 1.19.431 1.734.344.398-.064.756-.065 1.09-.178 1.114-.375 2.03-1.14 2.45-2.189.1-.248.187-.519.242-.798.172-.864-.031-1.77-.322-2.358-.635-1.28-1.781-2.232-3.722-2.228z"/></g></g></svg>