<svg xmlns="http://www.w3.org/2000/svg" width="50" height="42" viewBox="0 0 50 42"><g><g><path fill="#999" d="M20.88.372c-1.62.441-3.2.854-4.62 1.5-3.92 1.784-7.368 4.877-9.394 8.563l-1.249 2.53c-.218.627-.436 1.252-.655 1.876 0 .143-.005.184.062.25.43.348 1.403.436 1.967.594.308-.263.368-1.008.53-1.406.434-1.061.915-2.125 1.499-3.063 1.778-2.856 4.283-5.3 7.334-6.875 1.34-.69 2.845-1.243 4.432-1.656 2.582-.67 6.397-.616 8.864.156.745.233 1.37.333 2.06.594 4.412 1.666 7.987 4.963 9.956 9.093.808 1.694 1.774 3.75 1.904 6.063l-3.495-2.656h-.125l-1.249 1.75c.507.634 1.408 1.07 2.06 1.561 1.415 1.073 2.83 2.148 4.245 3.22.585-.318 1.046-1.307 1.436-1.844l2.434-3.219c.325-.43.87-.875 1.061-1.405-.232-.305-1.37-1.204-1.747-1.313l-2.373 3.156-.062.031-.53-2.563a29.5 29.5 0 0 0-1.592-4.03C40.513 4.918 33.518-.146 23.813-.003L20.88.372zM.062 25.842c.132.461 1.292.97 1.623 1.374h.125l2.403-3.157.063-.03c1.627 9.314 7.344 14.83 15.792 17.344 2.67.793 6.591.694 9.332.062 5.704-1.315 9.628-4.164 12.578-8.219 1.047-1.438 1.839-2.942 2.56-4.75.189-.475.498-1.017.53-1.625-.552-.242-1.426-.583-2.09-.594-.602 1.219-.842 2.513-1.499 3.626-2.309 3.907-5.513 7.027-10.05 8.686-3.969 1.454-9.186 1.394-13.109-.094-5.855-2.218-11.068-7.835-11.86-15.093l2.653 1.937c.274.206.504.56.905.626l1.28-1.688c-.28-.49-1.02-.819-1.467-1.156a62912.36 62912.36 0 0 1-4.744-3.656H4.9L.062 25.84z"/></g></g></svg>