<svg xmlns="http://www.w3.org/2000/svg" width="14" height="12" viewBox="0 0 14 12"><g><g><path fill="#212121" d="M13.468 3.915a.403.403 0 0 1-.093.257l-6.05 7.664a.402.402 0 0 1-.516.116.401.401 0 0 1-.126-.106L.62 4.166A.403.403 0 0 1 .594 3.7L2.616.467a.404.404 0 0 1 .325-.19L6.96-.125a.48.48 0 0 1 .09 0l3.221.403c.116.01.218.07.284.158l2.794 3.193a.403.403 0 0 1 .119.286zM6.01.78l-2.547.255.509 2.038zM1.666 3.51H3.25L2.797 1.7zm10.507 0l-1.535-1.755v1.755zM8.015.81L9.83 2.851V1.037zM7 .884L4.667 3.511h4.667zM12.23 4.32h-1.727L8.53 9.007zm-7.853 0L7 10.554l2.625-6.235zm-2.605 0l3.7 4.688-1.973-4.688z"/></g></g></svg>