<svg xmlns="http://www.w3.org/2000/svg" width="23" height="26" viewBox="0 0 23 26"><g><g><path fill="#494747" d="M6.877 10.69C5.65 9.472 5.03 7.983 5.03 6.262c0-1.72.621-3.21 1.847-4.428C8.103.617 9.602 0 11.335 0c1.732 0 3.232.617 4.458 1.834 1.226 1.218 1.847 2.708 1.847 4.428 0 1.72-.622 3.21-1.847 4.427-1.226 1.218-2.726 1.835-4.458 1.835-1.732 0-3.232-.617-4.458-1.834zm-.313-4.428c0 1.32.457 2.416 1.398 3.35.94.934 2.044 1.389 3.373 1.389 1.329 0 2.432-.455 3.373-1.389.94-.934 1.398-2.03 1.398-3.35 0-1.32-.457-2.416-1.398-3.35-.94-.934-2.044-1.388-3.373-1.388-1.33 0-2.433.454-3.373 1.388-.94.934-1.398 2.03-1.398 3.35zM22.42 21.528c0 1.358-.434 2.457-1.291 3.267-.846.8-1.966 1.205-3.327 1.205H5.198c-1.362 0-2.481-.406-3.327-1.205-.857-.81-1.291-1.91-1.291-3.267 0-.522.018-1.038.052-1.535.036-.508.107-1.06.212-1.643.107-.588.243-1.144.407-1.652.17-.525.4-1.044.684-1.54a5.807 5.807 0 0 1 1.03-1.335 4.543 4.543 0 0 1 1.481-.924 5.145 5.145 0 0 1 1.89-.34c.268 0 .526.109 1.025.432.312.201.671.431 1.069.683.342.217.807.42 1.38.605.56.18 1.128.27 1.69.27.56 0 1.129-.09 1.689-.27.573-.184 1.038-.388 1.38-.605.402-.254.761-.484 1.068-.683.5-.323.758-.432 1.025-.432.68 0 1.317.114 1.89.34a4.554 4.554 0 0 1 1.482.924c.389.37.735.819 1.03 1.334.285.497.515 1.016.684 1.541.164.508.3 1.064.407 1.652.105.583.177 1.136.212 1.643.035.495.053 1.011.053 1.535zm-1.534 0c0-.488-.017-.969-.05-1.429-.03-.453-.095-.95-.19-1.48a11.345 11.345 0 0 0-.359-1.456 6.606 6.606 0 0 0-.556-1.253 4.293 4.293 0 0 0-.758-.986 3.023 3.023 0 0 0-.985-.608 3.558 3.558 0 0 0-1.208-.232c-.054.028-.15.083-.305.183-.315.204-.668.43-1.08.691-.453.288-1.037.547-1.734.77a7.068 7.068 0 0 1-2.162.346 7.063 7.063 0 0 1-2.16-.346c-.698-.223-1.282-.482-1.735-.769-.402-.255-.765-.488-1.08-.692-.155-.1-.251-.155-.305-.183-.44.012-.847.09-1.208.232-.39.153-.722.358-.985.608-.281.268-.536.6-.758.986-.232.406-.419.827-.556 1.253a11.38 11.38 0 0 0-.358 1.456c-.095.529-.16 1.026-.191 1.48-.033.461-.049.942-.049 1.43 0 .936.266 1.644.815 2.162.558.528 1.3.785 2.269.785h12.604c.968 0 1.71-.257 2.27-.785.547-.518.814-1.226.814-2.163z"/></g></g></svg>